<?xml version="1.0" encoding="UTF-8" standalone="no"?>
<!DOCTYPE svg PUBLIC "-//W3C//DTD SVG 1.1//EN"
 "http://www.w3.org/Graphics/SVG/1.1/DTD/svg11.dtd">
<!-- Generated by graphviz version 10.0.1 (20240210.2158)
 -->
<!-- Pages: 1 -->
<svg width="563pt" height="260pt"
 viewBox="0.00 0.00 563.12 260.00" xmlns="http://www.w3.org/2000/svg" xmlns:xlink="http://www.w3.org/1999/xlink">
<g id="graph0" class="graph" transform="scale(1 1) rotate(0) translate(4 256)">
<polygon fill="white" stroke="none" points="-4,4 -4,-256 559.12,-256 559.12,4 -4,4"/>
<!-- core.common -->
<g id="node1" class="node">
<title>core.common</title>
<polygon fill="lightblue" stroke="black" points="193.38,-108 105.62,-108 101.62,-104 101.62,-72 189.38,-72 193.38,-76 193.38,-108"/>
<polyline fill="none" stroke="black" points="189.38,-104 101.62,-104"/>
<polyline fill="none" stroke="black" points="189.38,-104 189.38,-72"/>
<polyline fill="none" stroke="black" points="189.38,-104 193.38,-108"/>
<text text-anchor="middle" x="147.5" y="-84.95" font-family="Times,serif" font-size="14.00">core.common</text>
</g>
<!-- core.analytics -->
<g id="node2" class="node">
<title>core.analytics</title>
<polygon fill="lightblue" stroke="black" points="91,-36 4,-36 0,-32 0,0 87,0 91,-4 91,-36"/>
<polyline fill="none" stroke="black" points="87,-32 0,-32"/>
<polyline fill="none" stroke="black" points="87,-32 87,0"/>
<polyline fill="none" stroke="black" points="87,-32 91,-36"/>
<text text-anchor="middle" x="45.5" y="-12.95" font-family="Times,serif" font-size="14.00">core.analytics</text>
</g>
<!-- core.common&#45;&gt;core.analytics -->
<g id="edge1" class="edge">
<title>core.common&#45;&gt;core.analytics</title>
<path fill="none" stroke="black" d="M122.02,-71.52C109.27,-62.76 93.65,-52.04 79.85,-42.58"/>
<polygon fill="black" stroke="black" points="82.12,-39.89 71.9,-37.12 78.16,-45.66 82.12,-39.89"/>
</g>
<!-- core.logger -->
<g id="node3" class="node">
<title>core.logger</title>
<polygon fill="lightblue" stroke="black" points="186.25,-36 112.75,-36 108.75,-32 108.75,0 182.25,0 186.25,-4 186.25,-36"/>
<polyline fill="none" stroke="black" points="182.25,-32 108.75,-32"/>
<polyline fill="none" stroke="black" points="182.25,-32 182.25,0"/>
<polyline fill="none" stroke="black" points="182.25,-32 186.25,-36"/>
<text text-anchor="middle" x="147.5" y="-12.95" font-family="Times,serif" font-size="14.00">core.logger</text>
</g>
<!-- core.common&#45;&gt;core.logger -->
<g id="edge2" class="edge">
<title>core.common&#45;&gt;core.logger</title>
<path fill="none" stroke="black" d="M147.5,-71.7C147.5,-64.41 147.5,-55.73 147.5,-47.54"/>
<polygon fill="black" stroke="black" points="151,-47.62 147.5,-37.62 144,-47.62 151,-47.62"/>
</g>
<!-- app -->
<g id="node4" class="node">
<title>app</title>
<polygon fill="lightblue" stroke="black" points="259.5,-252 209.5,-252 205.5,-248 205.5,-216 255.5,-216 259.5,-220 259.5,-252"/>
<polyline fill="none" stroke="black" points="255.5,-248 205.5,-248"/>
<polyline fill="none" stroke="black" points="255.5,-248 255.5,-216"/>
<polyline fill="none" stroke="black" points="255.5,-248 259.5,-252"/>
<text text-anchor="middle" x="232.5" y="-228.95" font-family="Times,serif" font-size="14.00">app</text>
</g>
<!-- presentation -->
<g id="node5" class="node">
<title>presentation</title>
<polygon fill="lightblue" stroke="black" points="273.5,-180 195.5,-180 191.5,-176 191.5,-144 269.5,-144 273.5,-148 273.5,-180"/>
<polyline fill="none" stroke="black" points="269.5,-176 191.5,-176"/>
<polyline fill="none" stroke="black" points="269.5,-176 269.5,-144"/>
<polyline fill="none" stroke="black" points="269.5,-176 273.5,-180"/>
<text text-anchor="middle" x="232.5" y="-156.95" font-family="Times,serif" font-size="14.00">presentation</text>
</g>
<!-- app&#45;&gt;presentation -->
<g id="edge3" class="edge">
<title>app&#45;&gt;presentation</title>
<path fill="none" stroke="black" d="M232.5,-215.7C232.5,-208.41 232.5,-199.73 232.5,-191.54"/>
<polygon fill="black" stroke="black" points="236,-191.62 232.5,-181.62 229,-191.62 236,-191.62"/>
</g>
<!-- presentation&#45;&gt;core.common -->
<g id="edge7" class="edge">
<title>presentation&#45;&gt;core.common</title>
<path fill="none" stroke="black" d="M211.49,-143.7C201.17,-135.2 188.56,-124.81 177.27,-115.51"/>
<polygon fill="black" stroke="black" points="179.68,-112.96 169.73,-109.31 175.23,-118.37 179.68,-112.96"/>
</g>
<!-- data -->
<g id="node6" class="node">
<title>data</title>
<polygon fill="lightblue" stroke="black" points="342.5,-108 292.5,-108 288.5,-104 288.5,-72 338.5,-72 342.5,-76 342.5,-108"/>
<polyline fill="none" stroke="black" points="338.5,-104 288.5,-104"/>
<polyline fill="none" stroke="black" points="338.5,-104 338.5,-72"/>
<polyline fill="none" stroke="black" points="338.5,-104 342.5,-108"/>
<text text-anchor="middle" x="315.5" y="-84.95" font-family="Times,serif" font-size="14.00">data</text>
</g>
<!-- presentation&#45;&gt;data -->
<g id="edge9" class="edge">
<title>presentation&#45;&gt;data</title>
<path fill="none" stroke="black" d="M253.02,-143.7C263.09,-135.2 275.41,-124.81 286.43,-115.51"/>
<polygon fill="black" stroke="black" points="288.39,-118.45 293.77,-109.32 283.87,-113.09 288.39,-118.45"/>
</g>
<!-- domain -->
<g id="node7" class="node">
<title>domain</title>
<polygon fill="lightblue" stroke="black" points="261.12,-36 207.88,-36 203.88,-32 203.88,0 257.12,0 261.12,-4 261.12,-36"/>
<polyline fill="none" stroke="black" points="257.12,-32 203.88,-32"/>
<polyline fill="none" stroke="black" points="257.12,-32 257.12,0"/>
<polyline fill="none" stroke="black" points="257.12,-32 261.12,-36"/>
<text text-anchor="middle" x="232.5" y="-12.95" font-family="Times,serif" font-size="14.00">domain</text>
</g>
<!-- presentation&#45;&gt;domain -->
<g id="edge8" class="edge">
<title>presentation&#45;&gt;domain</title>
<path fill="none" stroke="black" d="M232.5,-143.59C232.5,-119.61 232.5,-76.14 232.5,-47.42"/>
<polygon fill="black" stroke="black" points="236,-47.62 232.5,-37.62 229,-47.62 236,-47.62"/>
</g>
<!-- data&#45;&gt;domain -->
<g id="edge4" class="edge">
<title>data&#45;&gt;domain</title>
<path fill="none" stroke="black" d="M294.98,-71.7C284.91,-63.2 272.59,-52.81 261.57,-43.51"/>
<polygon fill="black" stroke="black" points="264.13,-41.09 254.23,-37.32 259.61,-46.45 264.13,-41.09"/>
</g>
<!-- core.networkRetrofit -->
<g id="node8" class="node">
<title>core.networkRetrofit</title>
<polygon fill="lightblue" stroke="black" points="408.12,-36 282.88,-36 278.88,-32 278.88,0 404.12,0 408.12,-4 408.12,-36"/>
<polyline fill="none" stroke="black" points="404.12,-32 278.88,-32"/>
<polyline fill="none" stroke="black" points="404.12,-32 404.12,0"/>
<polyline fill="none" stroke="black" points="404.12,-32 408.12,-36"/>
<text text-anchor="middle" x="343.5" y="-12.95" font-family="Times,serif" font-size="14.00">core.networkRetrofit</text>
</g>
<!-- data&#45;&gt;core.networkRetrofit -->
<g id="edge5" class="edge">
<title>data&#45;&gt;core.networkRetrofit</title>
<path fill="none" stroke="black" d="M322.42,-71.7C325.44,-64.15 329.05,-55.12 332.43,-46.68"/>
<polygon fill="black" stroke="black" points="335.63,-48.09 336.1,-37.51 329.13,-45.49 335.63,-48.09"/>
</g>
<!-- core.storageRoomdb -->
<g id="node9" class="node">
<title>core.storageRoomdb</title>
<polygon fill="lightblue" stroke="black" points="555.12,-36 429.88,-36 425.88,-32 425.88,0 551.12,0 555.12,-4 555.12,-36"/>
<polyline fill="none" stroke="black" points="551.12,-32 425.88,-32"/>
<polyline fill="none" stroke="black" points="551.12,-32 551.12,0"/>
<polyline fill="none" stroke="black" points="551.12,-32 555.12,-36"/>
<text text-anchor="middle" x="490.5" y="-12.95" font-family="Times,serif" font-size="14.00">core.storageRoomdb</text>
</g>
<!-- data&#45;&gt;core.storageRoomdb -->
<g id="edge6" class="edge">
<title>data&#45;&gt;core.storageRoomdb</title>
<path fill="none" stroke="black" d="M342.84,-78.06C367.78,-68.09 405.35,-53.06 436.36,-40.66"/>
<polygon fill="black" stroke="black" points="437.63,-43.92 445.61,-36.96 435.03,-37.42 437.63,-43.92"/>
</g>
</g>
</svg>
