<?xml version="1.0" encoding="UTF-8" standalone="no"?>
<!DOCTYPE svg PUBLIC "-//W3C//DTD SVG 1.1//EN"
 "http://www.w3.org/Graphics/SVG/1.1/DTD/svg11.dtd">
<!-- Generated by graphviz version 10.0.1 (20240210.2158)
 -->
<!-- Pages: 1 -->
<svg width="563pt" height="260pt"
 viewBox="0.00 0.00 563.12 260.00" xmlns="http://www.w3.org/2000/svg" xmlns:xlink="http://www.w3.org/1999/xlink">
<g id="graph0" class="graph" transform="scale(1 1) rotate(0) translate(4 256)">
<polygon fill="white" stroke="none" points="-4,4 -4,-256 559.12,-256 559.12,4 -4,4"/>
<!-- core.common -->
<g id="node1" class="node">
<title>core.common</title>
<polygon fill="lightblue" stroke="black" points="193.38,-108 105.62,-108 101.62,-104 101.62,-72 189.38,-72 193.38,-76 193.38,-108"/>
<polyline fill="none" stroke="black" points="189.38,-104 101.62,-104"/>
<polyline fill="none" stroke="black" points="189.38,-104 189.38,-72"/>
<polyline fill="none" stroke="black" points="189.38,-104 193.38,-108"/>
<text text-anchor="middle" x="147.5" y="-84.95" font-family="Times,serif" font-size="14.00">core.common</text>
</g>
<!-- core.analytics -->
<g id="node2" class="node">
<title>core.analytics</title>
<polygon fill="lightblue" stroke="black" points="91,-36 4,-36 0,-32 0,0 87,0 91,-4 91,-36"/>
<polyline fill="none" stroke="black" points="87,-32 0,-32"/>
<polyline fill="none" stroke="black" points="87,-32 87,0"/>
<polyline fill="none" stroke="black" points="87,-32 91,-36"/>
<text text-anchor="middle" x="45.5" y="-12.95" font-family="Times,serif" font-size="14.00">core.analytics</text>
</g>
<!-- core.common&#45;&gt;core.analytics -->
<g id="edge1" class="edge">
<title>core.common&#45;&gt;core.analytics</title>
<path fill="none" stroke="black" d="M122.02,-71.52C109.27,-62.76 93.65,-52.04 79.85,-42.58"/>
<polygon fill="black" stroke="black" points="82.12,-39.89 71.9,-37.12 78.16,-45.66 82.12,-39.89"/>
</g>
<!-- core.logger -->
<g id="node3" class="node">
<title>core.logger</title>
<polygon fill="lightblue" stroke="black" points="186.25,-36 112.75,-36 108.75,-32 108.75,0 182.25,0 186.25,-4 186.25,-36"/>
<polyline fill="none" stroke="black" points="182.25,-32 108.75,-32"/>
<polyline fill="none" stroke="black" points="182.25,-32 182.25,0"/>
<polyline fill="none" stroke="black" points="182.25,-32 186.25,-36"/>
<text text-anchor="middle" x="147.5" y="-12.95" font-family="Times,serif" font-size="14.00">core.logger</text>
</g>
<!-- core.common&#45;&gt;core.logger -->
<g id="edge2" class="edge">
<title>core.common&#45;&gt;core.logger</title>
<path fill="none" stroke="black" d="M147.5,-71.7C147.5,-64.41 147.5,-55.73 147.5,-47.54"/>
<polygon fill="black" stroke="black" points="151,-47.62 147.5,-37.62 144,-47.62 151,-47.62"/>
</g>
<!-- app -->
<g id="node4" class="node">
<title>app</title>
<polygon fill="lightblue" stroke="black" points="219.5,-252 169.5,-252 165.5,-248 165.5,-216 215.5,-216 219.5,-220 219.5,-252"/>
<polyline fill="none" stroke="black" points="215.5,-248 165.5,-248"/>
<polyline fill="none" stroke="black" points="215.5,-248 215.5,-216"/>
<polyline fill="none" stroke="black" points="215.5,-248 219.5,-252"/>
<text text-anchor="middle" x="192.5" y="-228.95" font-family="Times,serif" font-size="14.00">app</text>
</g>
<!-- presentation -->
<g id="node5" class="node">
<title>presentation</title>
<polygon fill="lightblue" stroke="black" points="233.5,-180 155.5,-180 151.5,-176 151.5,-144 229.5,-144 233.5,-148 233.5,-180"/>
<polyline fill="none" stroke="black" points="229.5,-176 151.5,-176"/>
<polyline fill="none" stroke="black" points="229.5,-176 229.5,-144"/>
<polyline fill="none" stroke="black" points="229.5,-176 233.5,-180"/>
<text text-anchor="middle" x="192.5" y="-156.95" font-family="Times,serif" font-size="14.00">presentation</text>
</g>
<!-- app&#45;&gt;presentation -->
<g id="edge3" class="edge">
<title>app&#45;&gt;presentation</title>
<path fill="none" stroke="black" d="M192.5,-215.7C192.5,-208.41 192.5,-199.73 192.5,-191.54"/>
<polygon fill="black" stroke="black" points="196,-191.62 192.5,-181.62 189,-191.62 196,-191.62"/>
</g>
<!-- presentation&#45;&gt;core.common -->
<g id="edge7" class="edge">
<title>presentation&#45;&gt;core.common</title>
<path fill="none" stroke="black" d="M181.38,-143.7C176.31,-135.81 170.2,-126.3 164.57,-117.55"/>
<polygon fill="black" stroke="black" points="167.67,-115.9 159.31,-109.38 161.78,-119.68 167.67,-115.9"/>
</g>
<!-- data -->
<g id="node6" class="node">
<title>data</title>
<polygon fill="lightblue" stroke="black" points="317.5,-108 267.5,-108 263.5,-104 263.5,-72 313.5,-72 317.5,-76 317.5,-108"/>
<polyline fill="none" stroke="black" points="313.5,-104 263.5,-104"/>
<polyline fill="none" stroke="black" points="313.5,-104 313.5,-72"/>
<polyline fill="none" stroke="black" points="313.5,-104 317.5,-108"/>
<text text-anchor="middle" x="290.5" y="-84.95" font-family="Times,serif" font-size="14.00">data</text>
</g>
<!-- presentation&#45;&gt;data -->
<g id="edge8" class="edge">
<title>presentation&#45;&gt;data</title>
<path fill="none" stroke="black" d="M216.98,-143.52C229.11,-134.85 243.95,-124.25 257.11,-114.85"/>
<polygon fill="black" stroke="black" points="259,-117.8 265.1,-109.14 254.93,-112.1 259,-117.8"/>
</g>
<!-- domain -->
<g id="node7" class="node">
<title>domain</title>
<polygon fill="lightblue" stroke="black" points="261.12,-36 207.88,-36 203.88,-32 203.88,0 257.12,0 261.12,-4 261.12,-36"/>
<polyline fill="none" stroke="black" points="257.12,-32 203.88,-32"/>
<polyline fill="none" stroke="black" points="257.12,-32 257.12,0"/>
<polyline fill="none" stroke="black" points="257.12,-32 261.12,-36"/>
<text text-anchor="middle" x="232.5" y="-12.95" font-family="Times,serif" font-size="14.00">domain</text>
</g>
<!-- data&#45;&gt;domain -->
<g id="edge4" class="edge">
<title>data&#45;&gt;domain</title>
<path fill="none" stroke="black" d="M276.16,-71.7C269.42,-63.56 261.24,-53.69 253.8,-44.7"/>
<polygon fill="black" stroke="black" points="256.71,-42.74 247.64,-37.27 251.32,-47.2 256.71,-42.74"/>
</g>
<!-- core.networkRetrofit -->
<g id="node8" class="node">
<title>core.networkRetrofit</title>
<polygon fill="lightblue" stroke="black" points="408.12,-36 282.88,-36 278.88,-32 278.88,0 404.12,0 408.12,-4 408.12,-36"/>
<polyline fill="none" stroke="black" points="404.12,-32 278.88,-32"/>
<polyline fill="none" stroke="black" points="404.12,-32 404.12,0"/>
<polyline fill="none" stroke="black" points="404.12,-32 408.12,-36"/>
<text text-anchor="middle" x="343.5" y="-12.95" font-family="Times,serif" font-size="14.00">core.networkRetrofit</text>
</g>
<!-- data&#45;&gt;core.networkRetrofit -->
<g id="edge5" class="edge">
<title>data&#45;&gt;core.networkRetrofit</title>
<path fill="none" stroke="black" d="M303.6,-71.7C309.63,-63.73 316.92,-54.1 323.61,-45.26"/>
<polygon fill="black" stroke="black" points="326.39,-47.4 329.64,-37.31 320.81,-43.17 326.39,-47.4"/>
</g>
<!-- core.storageRoomdb -->
<g id="node9" class="node">
<title>core.storageRoomdb</title>
<polygon fill="lightblue" stroke="black" points="555.12,-36 429.88,-36 425.88,-32 425.88,0 551.12,0 555.12,-4 555.12,-36"/>
<polyline fill="none" stroke="black" points="551.12,-32 425.88,-32"/>
<polyline fill="none" stroke="black" points="551.12,-32 551.12,0"/>
<polyline fill="none" stroke="black" points="551.12,-32 555.12,-36"/>
<text text-anchor="middle" x="490.5" y="-12.95" font-family="Times,serif" font-size="14.00">core.storageRoomdb</text>
</g>
<!-- data&#45;&gt;core.storageRoomdb -->
<g id="edge6" class="edge">
<title>data&#45;&gt;core.storageRoomdb</title>
<path fill="none" stroke="black" d="M317.89,-79.41C346.61,-69.36 392.68,-53.24 430,-40.17"/>
<polygon fill="black" stroke="black" points="431.06,-43.51 439.34,-36.9 428.75,-36.9 431.06,-43.51"/>
</g>
</g>
</svg>
