<?xml version="1.0" encoding="UTF-8" standalone="no"?>
<!DOCTYPE svg PUBLIC "-//W3C//DTD SVG 1.1//EN"
 "http://www.w3.org/Graphics/SVG/1.1/DTD/svg11.dtd">
<!-- Generated by graphviz version 10.0.1 (20240210.2158)
 -->
<!-- Pages: 1 -->
<svg width="407pt" height="398pt"
 viewBox="0.00 0.00 407.38 398.00" xmlns="http://www.w3.org/2000/svg" xmlns:xlink="http://www.w3.org/1999/xlink">
<g id="graph0" class="graph" transform="scale(1 1) rotate(0) translate(4 394)">
<polygon fill="white" stroke="none" points="-4,4 -4,-394 403.38,-394 403.38,4 -4,4"/>
<!-- core.analytics -->
<g id="node1" class="node">
<title>core.analytics</title>
<polygon fill="lightblue" stroke="black" points="67.75,-124.5 4,-124.5 0,-120.5 0,-88.5 63.75,-88.5 67.75,-92.5 67.75,-124.5"/>
<polyline fill="none" stroke="black" points="63.75,-120.5 0,-120.5"/>
<polyline fill="none" stroke="black" points="63.75,-120.5 63.75,-88.5"/>
<polyline fill="none" stroke="black" points="63.75,-120.5 67.75,-124.5"/>
<text text-anchor="middle" x="33.88" y="-101.45" font-family="Times,serif" font-size="14.00">Analytics</text>
</g>
<!-- core.logger -->
<g id="node2" class="node">
<title>core.logger</title>
<polygon fill="lightblue" stroke="black" points="147.75,-124.5 90,-124.5 86,-120.5 86,-88.5 143.75,-88.5 147.75,-92.5 147.75,-124.5"/>
<polyline fill="none" stroke="black" points="143.75,-120.5 86,-120.5"/>
<polyline fill="none" stroke="black" points="143.75,-120.5 143.75,-88.5"/>
<polyline fill="none" stroke="black" points="143.75,-120.5 147.75,-124.5"/>
<text text-anchor="middle" x="116.88" y="-101.45" font-family="Times,serif" font-size="14.00">Logging</text>
</g>
<!-- core.common -->
<g id="node3" class="node">
<title>core.common</title>
<polygon fill="lightblue" stroke="black" points="139.75,-213 76,-213 72,-209 72,-177 135.75,-177 139.75,-181 139.75,-213"/>
<polyline fill="none" stroke="black" points="135.75,-209 72,-209"/>
<polyline fill="none" stroke="black" points="135.75,-209 135.75,-177"/>
<polyline fill="none" stroke="black" points="135.75,-209 139.75,-213"/>
<text text-anchor="middle" x="105.88" y="-189.95" font-family="Times,serif" font-size="14.00">Common</text>
</g>
<!-- core.common&#45;&gt;core.analytics -->
<g id="edge5" class="edge">
<title>core.common&#45;&gt;core.analytics</title>
<path fill="none" stroke="black" d="M91.65,-176.91C81.36,-164.55 67.28,-147.63 55.59,-133.58"/>
<polygon fill="black" stroke="black" points="58.37,-131.46 49.29,-126.01 52.99,-135.94 58.37,-131.46"/>
<text text-anchor="middle" x="88.5" y="-145.7" font-family="Times,serif" font-size="14.00">uses</text>
</g>
<!-- core.common&#45;&gt;core.logger -->
<g id="edge6" class="edge">
<title>core.common&#45;&gt;core.logger</title>
<path fill="none" stroke="black" d="M108.05,-176.91C109.53,-165.26 111.53,-149.55 113.25,-136.02"/>
<polygon fill="black" stroke="black" points="116.69,-136.71 114.48,-126.35 109.74,-135.83 116.69,-136.71"/>
<text text-anchor="middle" x="124.5" y="-145.7" font-family="Times,serif" font-size="14.00">uses</text>
</g>
<!-- core.networkRetrofit -->
<g id="node4" class="node">
<title>core.networkRetrofit</title>
<polygon fill="lightblue" stroke="black" points="260.25,-36 151.5,-36 147.5,-32 147.5,0 256.25,0 260.25,-4 260.25,-36"/>
<polyline fill="none" stroke="black" points="256.25,-32 147.5,-32"/>
<polyline fill="none" stroke="black" points="256.25,-32 256.25,0"/>
<polyline fill="none" stroke="black" points="256.25,-32 260.25,-36"/>
<text text-anchor="middle" x="203.88" y="-12.95" font-family="Times,serif" font-size="14.00">Network: Retrofit</text>
</g>
<!-- core.storageRoomdb -->
<g id="node5" class="node">
<title>core.storageRoomdb</title>
<polygon fill="lightblue" stroke="black" points="399.38,-36 282.38,-36 278.38,-32 278.38,0 395.38,0 399.38,-4 399.38,-36"/>
<polyline fill="none" stroke="black" points="395.38,-32 278.38,-32"/>
<polyline fill="none" stroke="black" points="395.38,-32 395.38,0"/>
<polyline fill="none" stroke="black" points="395.38,-32 399.38,-36"/>
<text text-anchor="middle" x="338.88" y="-12.95" font-family="Times,serif" font-size="14.00">Storage: Room DB</text>
</g>
<!-- data -->
<g id="node6" class="node">
<title>data</title>
<polygon fill="lightblue" stroke="black" points="365.88,-124.5 179.88,-124.5 175.88,-120.5 175.88,-88.5 361.88,-88.5 365.88,-92.5 365.88,-124.5"/>
<polyline fill="none" stroke="black" points="361.88,-120.5 175.88,-120.5"/>
<polyline fill="none" stroke="black" points="361.88,-120.5 361.88,-88.5"/>
<polyline fill="none" stroke="black" points="361.88,-120.5 365.88,-124.5"/>
<text text-anchor="middle" x="270.88" y="-101.45" font-family="Times,serif" font-size="14.00">Data (RepositoryImpl, Mapper)</text>
</g>
<!-- data&#45;&gt;core.networkRetrofit -->
<g id="edge7" class="edge">
<title>data&#45;&gt;core.networkRetrofit</title>
<path fill="none" stroke="black" d="M257.64,-88.41C248.07,-76.05 234.96,-59.13 224.08,-45.08"/>
<polygon fill="black" stroke="black" points="227.13,-43.31 218.24,-37.55 221.6,-47.6 227.13,-43.31"/>
<text text-anchor="middle" x="255.5" y="-57.2" font-family="Times,serif" font-size="14.00">uses</text>
</g>
<!-- data&#45;&gt;core.storageRoomdb -->
<g id="edge8" class="edge">
<title>data&#45;&gt;core.storageRoomdb</title>
<path fill="none" stroke="black" d="M284.31,-88.41C294.03,-76.05 307.33,-59.13 318.37,-45.08"/>
<polygon fill="black" stroke="black" points="320.87,-47.56 324.3,-37.54 315.37,-43.24 320.87,-47.56"/>
<text text-anchor="middle" x="323.5" y="-57.2" font-family="Times,serif" font-size="14.00">uses</text>
</g>
<!-- domain -->
<g id="node7" class="node">
<title>domain</title>
<polygon fill="lightblue" stroke="black" points="384.25,-213 161.5,-213 157.5,-209 157.5,-177 380.25,-177 384.25,-181 384.25,-213"/>
<polyline fill="none" stroke="black" points="380.25,-209 157.5,-209"/>
<polyline fill="none" stroke="black" points="380.25,-209 380.25,-177"/>
<polyline fill="none" stroke="black" points="380.25,-209 384.25,-213"/>
<text text-anchor="middle" x="270.88" y="-189.95" font-family="Times,serif" font-size="14.00">Domain (Usecase, Repository, Model)</text>
</g>
<!-- domain&#45;&gt;data -->
<g id="edge3" class="edge">
<title>domain&#45;&gt;data</title>
<path fill="none" stroke="black" d="M270.88,-176.91C270.88,-165.26 270.88,-149.55 270.88,-136.02"/>
<polygon fill="black" stroke="black" points="274.38,-136.36 270.88,-126.36 267.38,-136.36 274.38,-136.36"/>
<text text-anchor="middle" x="282.5" y="-145.7" font-family="Times,serif" font-size="14.00">uses</text>
</g>
<!-- presentation -->
<g id="node8" class="node">
<title>presentation</title>
<polygon fill="lightblue" stroke="black" points="312.88,-301.5 66.88,-301.5 62.88,-297.5 62.88,-265.5 308.88,-265.5 312.88,-269.5 312.88,-301.5"/>
<polyline fill="none" stroke="black" points="308.88,-297.5 62.88,-297.5"/>
<polyline fill="none" stroke="black" points="308.88,-297.5 308.88,-265.5"/>
<polyline fill="none" stroke="black" points="308.88,-297.5 312.88,-301.5"/>
<text text-anchor="middle" x="187.88" y="-278.45" font-family="Times,serif" font-size="14.00">Presentation (ViewModel, UI, Navigation)</text>
</g>
<!-- presentation&#45;&gt;core.common -->
<g id="edge4" class="edge">
<title>presentation&#45;&gt;core.common</title>
<path fill="none" stroke="black" d="M171.67,-265.41C159.85,-252.93 143.61,-235.8 130.22,-221.68"/>
<polygon fill="black" stroke="black" points="132.78,-219.3 123.36,-214.45 127.7,-224.11 132.78,-219.3"/>
<text text-anchor="middle" x="166.5" y="-234.2" font-family="Times,serif" font-size="14.00">uses</text>
</g>
<!-- presentation&#45;&gt;domain -->
<g id="edge2" class="edge">
<title>presentation&#45;&gt;domain</title>
<path fill="none" stroke="black" d="M204.27,-265.41C216.36,-252.82 232.99,-235.48 246.61,-221.29"/>
<polygon fill="black" stroke="black" points="248.78,-224.08 253.18,-214.44 243.73,-219.23 248.78,-224.08"/>
<text text-anchor="middle" x="248.5" y="-234.2" font-family="Times,serif" font-size="14.00">uses</text>
</g>
<!-- app -->
<g id="node9" class="node">
<title>app</title>
<polygon fill="lightblue" stroke="black" points="227.75,-390 152,-390 148,-386 148,-354 223.75,-354 227.75,-358 227.75,-390"/>
<polyline fill="none" stroke="black" points="223.75,-386 148,-386"/>
<polyline fill="none" stroke="black" points="223.75,-386 223.75,-354"/>
<polyline fill="none" stroke="black" points="223.75,-386 227.75,-390"/>
<text text-anchor="middle" x="187.88" y="-366.95" font-family="Times,serif" font-size="14.00">Application</text>
</g>
<!-- app&#45;&gt;presentation -->
<g id="edge1" class="edge">
<title>app&#45;&gt;presentation</title>
<path fill="none" stroke="black" d="M187.88,-353.91C187.88,-342.26 187.88,-326.55 187.88,-313.02"/>
<polygon fill="black" stroke="black" points="191.38,-313.36 187.88,-303.36 184.38,-313.36 191.38,-313.36"/>
<text text-anchor="middle" x="199.5" y="-322.7" font-family="Times,serif" font-size="14.00">uses</text>
</g>
</g>
</svg>
